<svg xmlns="http://www.w3.org/2000/svg" viewBox="-16 -933 27.377 21.877">
  <defs>
    <style>
      .cls-1 {
        fill: #ffd87d;
      }
    </style>
  </defs>
  <path id="path-3" class="cls-1" d="M3.112,12.754H5.767V3.265H3.112Zm.549-8.94H5.217V12.2H3.661Zm2.99,8.94H9.306V7.719H6.651ZM7.2,8.269H8.757V12.2H7.2Zm2.96,4.485h2.654V5.767H10.16Zm.549-6.438h1.556V12.2H10.709Zm11.2,1.251a4,4,0,0,0-2.929-1.281,4.063,4.063,0,0,0-4.027,3.905,4.1,4.1,0,0,0,1.1,2.9,4,4,0,0,0,2.929,1.281,3.955,3.955,0,0,0,2.746-1.1A4.045,4.045,0,0,0,21.907,7.567Zm-.549,5.309a3.45,3.45,0,0,1-2.38.946,3.489,3.489,0,0,1-3.478-3.6A3.5,3.5,0,0,1,16.6,7.78a3.45,3.45,0,0,1,2.38-.946,3.489,3.489,0,0,1,3.478,3.6A3.5,3.5,0,0,1,21.358,12.876ZM27,17.056l-.092-.092h0l-1.617-1.587V1.312A1.3,1.3,0,0,0,24.012,0H1.312A1.3,1.3,0,0,0,0,1.312V16.171a1.3,1.3,0,0,0,1.312,1.312H9.855v.854c-.122,1.342-.976,1.587-2.288,1.983l-.519.122c-.336.092-.885.244-.946.7a.605.605,0,0,0,.092.549.782.782,0,0,0,.58.183H17.941c.214,0,.458,0,.58-.183a.592.592,0,0,0,.092-.549c-.061-.458-.61-.61-.946-.7l-.488-.153c-1.281-.366-2.136-.61-2.288-1.861v-.976h9.062l1.1,1.281.031.031.061.061a1.251,1.251,0,0,0,.946.427,1.222,1.222,0,0,0,.885-.366A1.27,1.27,0,0,0,27,17.056Zm-9.977,3.783.488.153c.458.122.549.214.549.244v.092H6.621v-.092c0-.031.092-.122.549-.275l.488-.153c1.312-.366,2.532-.732,2.685-2.471v-.885h3.936v1.007C14.523,20.107,15.683,20.443,17.025,20.839ZM1.312,16.9a.755.755,0,0,1-.763-.763V1.312A.755.755,0,0,1,1.312.549h22.7a.755.755,0,0,1,.763.763V14.889l-1.1-1.068v-.915a5.265,5.265,0,0,0,0-5.034V2.166a.873.873,0,0,0-.854-.854H2.38a.873.873,0,0,0-.854.854V13.974H15.134a.03.03,0,0,0,.031.031,5.334,5.334,0,0,0,3.875,1.678,5.165,5.165,0,0,0,2.777-.793L23.524,16.9Zm12.327-13v8.848h.61a4.323,4.323,0,0,0,.427.7H2.044V2.166a.306.306,0,0,1,.305-.305H22.792a.306.306,0,0,1,.305.305V7.048c-.092-.092-.153-.183-.244-.275A5.334,5.334,0,0,0,18.978,5.1a5.45,5.45,0,0,0-2.685.732V3.905Zm2.105.549V6.194a3.865,3.865,0,0,0-.4.336,5.978,5.978,0,0,0-1.19,1.617V4.455ZM26.575,18.52a.764.764,0,0,1-1.068-.031l-.031-.031c-.031-.031-.031-.061-.061-.092l-1.19-1.434h0L22.09,14.371a.282.282,0,0,0-.366-.061,4.721,4.721,0,0,1-2.685.824,4.617,4.617,0,0,1-3.448-1.5A4.744,4.744,0,0,1,19.07,5.645a4.8,4.8,0,0,1,3.478,1.5,4.733,4.733,0,0,1,.275,6.194.278.278,0,0,0,.031.366l3.692,3.661.031.031.061.061A.767.767,0,0,1,26.575,18.52Z" transform="translate(-16 -933)"/>
</svg>
