<svg xmlns="http://www.w3.org/2000/svg" viewBox="4157 -1888 20.397 26.838">
  <defs>
    <style>
      .cls-1 {
        fill: #4881ff;
      }
    </style>
  </defs>
  <g id="group-30" transform="translate(4157 -1888)">
    <path id="path" class="cls-1" d="M38.648,27.2V26H37.574v1.221a5.368,5.368,0,0,0-1.294.293,3.634,3.634,0,0,0-1.1.69,3.2,3.2,0,0,0-.762,1.052,3.239,3.239,0,0,0-.284,1.4,3.057,3.057,0,0,0,.3,1.414,3.266,3.266,0,0,0,.789,1,3.98,3.98,0,0,0,1.074.69c.429.182,1.009.338,1.278.47v4.49a4.475,4.475,0,0,1-.625-.1,3.221,3.221,0,0,1-.684-.268,4.294,4.294,0,0,1-.674-.451,2.683,2.683,0,0,1-.558-.6L33.75,38.388a5,5,0,0,0,1.693,1.251,5.437,5.437,0,0,0,2.131.472V41.3h1.074V40.111a4.122,4.122,0,0,0,1.385-.268,3.349,3.349,0,0,0,1.159-.692,3.29,3.29,0,0,0,.786-1.111,3.6,3.6,0,0,0,.287-1.484,3.221,3.221,0,0,0-.319-1.484,3.336,3.336,0,0,0-.84-1.049,4.592,4.592,0,0,0-1.154-.717c-.44-.188-1.036-.36-1.3-.513V28.6a4.074,4.074,0,0,1,1.216.282,2.528,2.528,0,0,1,1.02.778l1.194-1.114a4.09,4.09,0,0,0-1.592-1A6.317,6.317,0,0,0,38.648,27.2Zm-1.074,5.333a3.387,3.387,0,0,1-1.28-.7,1.61,1.61,0,0,1-.486-1.3,1.774,1.774,0,0,1,.5-1.388,2.7,2.7,0,0,1,1.267-.553Zm2.458,2.705a1.693,1.693,0,0,1,.55,1.342,2.318,2.318,0,0,1-.174.923,1.919,1.919,0,0,1-.446.652,1.879,1.879,0,0,1-.6.4,2.042,2.042,0,0,1-.714.158V34.459A4.2,4.2,0,0,1,40.033,35.24Z" transform="translate(-27.913 -19.022)"/>
    <path id="path-2" data-name="path" class="cls-1" d="M32.4,6.978,25.419,0H12V26.838H32.4V6.978ZM31.055,25.5H13.342V1.342H25.419V6.978h5.636Z" transform="translate(-12)"/>
  </g>
</svg>
