<svg xmlns="http://www.w3.org/2000/svg" viewBox="1377 -1939 21.565 21.57">
  <defs>
    <style>
      .cls-1 {
        fill: #ffd87d;
      }
    </style>
  </defs>
  <path id="path-4" class="cls-1" d="M25.168,23.631c.53.522.791.762,1.4.762v2.157a3.849,3.849,0,0,1-2.921-1.395c-.53-.522-.788-.762-1.392-.762s-.867.24-1.4.762a3.749,3.749,0,0,1-5.835,0c-.537-.522-.8-.762-1.395-.762s-.865.24-1.392.762a3.862,3.862,0,0,1-2.921,1.395,3.855,3.855,0,0,1-2.919-1.395c-.53-.522-.788-.762-1.395-.762V22.236a3.843,3.843,0,0,1,2.919,1.395c.527.522.786.762,1.395.762s.863-.24,1.392-.762a3.754,3.754,0,0,1,5.839,0c.522.522.781.762,1.395.762s.867-.24,1.4-.762a3.746,3.746,0,0,1,5.832,0ZM11.86,16.018a14.838,14.838,0,0,0,1.2-1.416l.177-.24a4.126,4.126,0,0,1-1.553-3.189,4.038,4.038,0,0,1,7.934-1.006,8.656,8.656,0,0,1,.973-.06,8.423,8.423,0,0,1,1.229.093,6.189,6.189,0,1,0-9.958,5.818Zm14.561-.1c-1.318-1.713-2.813-3.657-5.832-3.657s-4.514,1.941-5.832,3.657-2.26,2.813-4.121,2.813-2.78-1.069-4.121-2.813A17.918,17.918,0,0,0,5,14.125V17.48c1.272,1.641,2.76,3.41,5.633,3.41,3.019,0,4.514-1.941,5.832-3.657s2.26-2.813,4.124-2.813,2.78,1.071,4.121,2.813a15.223,15.223,0,0,0,1.855,2.106V16.107Z" transform="translate(1372 -1943.979)"/>
</svg>
