<svg xmlns="http://www.w3.org/2000/svg" viewBox="4158 -1774 20.236 21.996">
  <defs>
    <style>
      .cls-1 {
        fill: #4881ff;
      }
    </style>
  </defs>
  <g id="group-7" transform="translate(4158 -1774)">
    <g id="group" transform="translate(9.018)">
      <path id="path" class="cls-1" d="M42.1,7.765A1.021,1.021,0,0,1,41,6.841V.924a1.117,1.117,0,0,1,2.2,0V6.841A1.021,1.021,0,0,1,42.1,7.765Z" transform="translate(-41)"/>
    </g>
    <path id="path-2" data-name="path" class="cls-1" d="M10.118,33.227a10,10,0,0,0,4.949-18.763c-.484-.22-.572.176-.572.176V16.4a.508.508,0,0,0,.154.352,7.788,7.788,0,0,1,3.387,6.423A7.908,7.908,0,0,1,2.222,23.2a7.788,7.788,0,0,1,3.387-6.423.508.508,0,0,0,.154-.352v-1.76s-.11-.4-.572-.176A9.9,9.9,0,0,0,0,23.2,10.087,10.087,0,0,0,10.118,33.227Z" transform="translate(0 -11.231)"/>
  </g>
</svg>
