<svg xmlns="http://www.w3.org/2000/svg" viewBox="-8 -2222.118 1134.627 835.262">
  <defs>
    <style>
      .cls-1 {
        opacity: 0.302;
      }

      .cls-2 {
        fill: #4881FF;
      }
    </style>
  </defs>
  <g id="group-51" class="cls-1" transform="translate(-8.044 -2222.109)">
    <path id="path" class="cls-2" d="M139.961,677.12a2.361,2.361,0,0,1-2.1-3.324L295.82,335.4a2.359,2.359,0,0,1,4.461.7l47.4,310.582a2.362,2.362,0,0,1-.437,1.749,2.276,2.276,0,0,1-1.574.875L140.661,677.12Zm156.822-332.36L143.9,672.222l198.716-26.938Z" transform="translate(-45.756 -200.641)"/>
    <path id="path-2" data-name="path" class="cls-2" d="M274.955,548.169h0a2.28,2.28,0,0,1-1.749-1.05L161.515,373.242a2.361,2.361,0,0,1,3.324-3.236L329.357,484.583a2.361,2.361,0,0,1,0,3.5l-53.09,59.3a2.366,2.366,0,0,1-1.312.788ZM171.836,380.589l103.469,161.37,49.154-55.014Z" transform="translate(136.041 74.462)"/>
    <path id="path-3" data-name="path" class="cls-2" d="M351.553,549.815a2.36,2.36,0,0,1-1.662-.612L218.7,422.119a2.276,2.276,0,0,1-.7-1.837,2.362,2.362,0,0,1,.875-1.749l113.7-86.239a2.362,2.362,0,0,1,3.761,1.662l17.493,213.323a2.362,2.362,0,0,1-1.312,2.274ZM223.507,420.807,348.667,541.681,331.786,338.592Z" transform="translate(576.525 -218)"/>
    <path id="path-4" data-name="path" class="cls-2" d="M250.85,549.861a2.362,2.362,0,0,1-2.362-2.187L231,334.35a2.361,2.361,0,0,1,3.936-1.923L397.613,489.861a2.446,2.446,0,0,1,.613.962,95.456,95.456,0,0,1,2.623,10.058,92.449,92.449,0,0,1,1.75,19.329,64.706,64.706,0,0,1,13.644,10.758,2.361,2.361,0,0,1-1.487,3.936L251.112,549.423ZM236.069,339.949,252.949,544.7l156.209-13.819a58.945,58.945,0,0,0-10.058-7.172,2.362,2.362,0,0,1-1.225-2.1,87.886,87.886,0,0,0-1.662-19.679q-.962-4.429-2.362-8.746Z" transform="translate(677.228 -218.045)"/>
    <path id="path-5" data-name="path" class="cls-2" d="M258.328,499.124h0l-62.886-2.711a2.367,2.367,0,0,1-1.749-.875,190.056,190.056,0,0,1-30.612-52.479,2.361,2.361,0,0,1,1.137-2.886l95.422-50.466a2.362,2.362,0,0,1,3.411,2.1l-2.536,104.956a2.362,2.362,0,0,1-2.362,2.274Zm-61.662-7.347,59.388,2.623,2.362-98.833-90.262,47.756a185.587,185.587,0,0,0,28.425,48.629Z" transform="translate(150.131 228.462)"/>
    <path id="path-6" data-name="path" class="cls-2" d="M338.619,489.869a2.362,2.362,0,0,1-1.487-.524l-180.7-151.224a2.362,2.362,0,0,1,2.361-3.936l220.145,90.174a2.824,2.824,0,0,1,1.312,3.5l-39.446,61.224a2.36,2.36,0,0,1-1.662,1.05ZM171.039,344.243,338.094,484.184l36.472-56.414Z" transform="translate(94.243 -200.561)"/>
    <path id="path-7" data-name="path" class="cls-2" d="M178.648,410.229a2.362,2.362,0,0,1-1.924-3.586l39.446-61.224a2.362,2.362,0,0,1,2.886-.876l132.769,58.95a2.336,2.336,0,0,1-.962,4.46l-172.127,2.012Zm40.321-60.35-35.947,55.626,157.434-1.837Z" transform="translate(254.214 -120.921)"/>
    <path id="path-8" data-name="path" class="cls-2" d="M183.159,445.653h-.787a2.362,2.362,0,0,1-1.487-2.361l7.609-109.242a2.361,2.361,0,0,1,3.5-1.836l53,29.212a2.362,2.362,0,0,1,.7,3.5L185,444.953a2.357,2.357,0,0,1-1.837.7ZM192.868,337.9l-6.822,97.7L240.36,364.05Z" transform="translate(289.061 -217.307)"/>
    <path id="path-9" data-name="path" class="cls-2" d="M230.786,470.392h0c-3.761-.525-7.434-1.224-11.108-2.012a2.358,2.358,0,0,1-1.4-.961l-44.256-62.275a2.333,2.333,0,0,1,2.449-3.585l77.405,18.454a2.362,2.362,0,0,1,1.575,3.324l-22.216,45.83a2.362,2.362,0,0,1-2.449,1.224Zm-9.621-6.472,8.222,1.488,20.2-41.633-68.571-16.356Z" transform="translate(232.863 321.741)"/>
    <path id="path-10" data-name="path" class="cls-2" d="M415.26,426.125h-.613L234.56,373.646A2.361,2.361,0,0,1,235,369.1L398.641,354.58a2.364,2.364,0,0,1,1.924.7,63.759,63.759,0,0,1,17.493,50.99,2.451,2.451,0,0,1,.612,1.575l-1.224,16.181a2.361,2.361,0,0,1-1.05,1.75A2.278,2.278,0,0,1,415.26,426.125ZM247.768,372.509,413.16,420.7l.963-12.332a2.448,2.448,0,0,1-.613-1.575,59.125,59.125,0,0,0-15.569-47.667Z" transform="translate(692.905 -41.832)"/>
    <path id="path-11" data-name="path" class="cls-2" d="M217.029,547.993a2.358,2.358,0,0,1-1.749-.7l-83.528-88.775a2.444,2.444,0,0,1-.612-1.049v-1.487a4.442,4.442,0,0,0-.525-2.536,179.137,179.137,0,0,1-2.449-54.053,2.363,2.363,0,0,1,1.75-2.012l91.137-24.4a2.452,2.452,0,0,1,2.1,0,2.362,2.362,0,0,1,.875,1.925L219.74,545.369a2.362,2.362,0,0,1-1.487,2.1ZM135.6,455.72l79.242,84.139,4.023-161.632-86.589,23.178a174.927,174.927,0,0,0,2.537,51.078l.525,2.361Z" transform="translate(-127.11 98.952)"/>
    <path id="path-12" data-name="path" class="cls-2" d="M175.941,499.109a2.362,2.362,0,0,1-2.361-2.361l2.537-104.956a2.5,2.5,0,0,1,3.673-2.012L285.62,461.587a2.373,2.373,0,0,1-.7,4.2L176.641,499.109ZM180.752,395.9l-2.362,97.7,100.583-31.049Z" transform="translate(232.518 228.477)"/>
    <path id="path-13" data-name="path" class="cls-2" d="M253.349,454.418h-.525l-77.4-18.63a2.354,2.354,0,0,1-.175-4.548l108.367-33.5a2.225,2.225,0,0,1,2.536,3.411L255.36,453.281a2.361,2.361,0,0,1-2.012,1.137Zm-68.571-21.079,67.434,16.006,26.939-45.218Z" transform="translate(232.516 291.798)"/>
    <path id="path-14" data-name="path" class="cls-2" d="M282,518.394a2.359,2.359,0,0,1-1.312,0L174.94,446.237a2.278,2.278,0,0,1-.437-3.5l53.09-59.3a2.274,2.274,0,0,1,2.187-.7,2.36,2.36,0,0,1,1.749,1.4l52.477,131.195a2.36,2.36,0,0,1-2.186,3.236ZM179.751,443.875l97.259,65.948L228.556,389.386Z" transform="translate(234.831 175.957)"/>
    <path id="path-15" data-name="path" class="cls-2" d="M234.725,518.76a2.36,2.36,0,0,1-2.1-1.748l-52.478-131.2a2.305,2.305,0,0,1,2.886-3.061l261.253,89.387a2.362,2.362,0,0,1,0,4.549L235.774,518.41ZM186.1,389.228l50.117,124.548,197.579-39.621Z" transform="translate(282.102 175.59)"/>
    <path id="path-16" data-name="path" class="cls-2" d="M208.351,677.021h-.787l-77.23-28.775a2.364,2.364,0,0,1-1.312-1.312,2.275,2.275,0,0,1,0-1.837,178.367,178.367,0,0,1,8.746-17.492A180.349,180.349,0,0,1,201,483.641a180,180,0,0,1,36.21-78.717l.7-.612,127.171-69.97a2.361,2.361,0,0,1,3.236,3.061L210.362,675.8a2.36,2.36,0,0,1-2.011,1.225Zm-73.819-32.1,72.682,26.765L361.148,342.125,240.712,408.772a174.931,174.931,0,0,0-34.986,77.4,2.271,2.271,0,0,1-.787,1.4A175.627,175.627,0,0,0,142.753,629a2.277,2.277,0,0,1,0,1.312c-3.673,4.285-5.86,9.183-8.309,14.693Z" transform="translate(-114.146 -200.542)"/>
    <path id="path-17" data-name="path" class="cls-2" d="M376.623,597.861a2.368,2.368,0,0,1-1.749-.787L215.166,410.69a2.4,2.4,0,0,1,1.224-3.848l66.122-16.181a2.361,2.361,0,0,1,2.712,1.312l93.585,202.564a2.361,2.361,0,0,1-.874,2.974A2.288,2.288,0,0,1,376.623,597.861ZM221.2,410.515,367.439,581.154l-85.715-185.42Z" transform="translate(550.319 237.217)"/>
    <path id="path-18" data-name="path" class="cls-2" d="M318.155,597.692a2.363,2.363,0,0,1-2.1-1.4l-93.673-202.3a2.362,2.362,0,0,1,2.624-3.324L299,406.847a2.36,2.36,0,0,1,1.837,2.011l19.591,186.3a2.361,2.361,0,0,1-1.749,2.449ZM228.68,396.526l85.714,185.422L296.9,411.308Z" transform="translate(608.786 237.387)"/>
    <path id="path-19" data-name="path" class="cls-2" d="M245.547,430.554a2.277,2.277,0,0,1-1.312,0l-69.446-45.131a2.361,2.361,0,0,1,0-3.849l82.3-59.125h1.924l2.624-.612a106.7,106.7,0,0,1,45.48.786,2.361,2.361,0,0,1,1.487,3.5L247.384,430.379a2.361,2.361,0,0,1-1.487,1.137Zm-65.16-47.493,64.548,41.895L303.01,325.6a101.727,101.727,0,0,0-40.32,0l-2.361.524h-.7Z" transform="translate(234.195 -311.449)"/>
    <path id="path-20" data-name="path" class="cls-2" d="M231.673,497.565a2.36,2.36,0,0,1-1.574-.613l-47.143-43.731a2.36,2.36,0,0,1,0-2.886l30.437-51.516a2.359,2.359,0,0,1,1.924-1.137,2.1,2.1,0,0,1,2.012.963l60,79.678a2.274,2.274,0,0,1,0,1.925,2.364,2.364,0,0,1-1.224,1.574,192.422,192.422,0,0,1-44.344,15.743Zm-43.732-46.181,44.781,41.282a187.311,187.311,0,0,0,39.533-13.906L216.1,404.154Z" transform="translate(301.334 292.033)"/>
    <path id="path-21" data-name="path" class="cls-2" d="M392.014,525.011H391.4a120.783,120.783,0,0,1-74.868-62.273,192.427,192.427,0,0,1-67.084,55.976,2.361,2.361,0,0,1-2.886-.7l-60.175-79.679a2.36,2.36,0,0,1,1.4-3.673L396.3,392.942a2.362,2.362,0,0,1,2.012.525,2.277,2.277,0,0,1,.787,1.837l-4.9,127.609a1.971,1.971,0,0,1-2.187,2.1Zm-75.043-69.271h0a2.362,2.362,0,0,1,1.924,1.4,116.064,116.064,0,0,0,70.671,62.449L394.2,398.015,192.336,438.423l56.589,75.131A187.422,187.422,0,0,0,314.872,456.7a2.276,2.276,0,0,1,2.1-.787Z" transform="translate(328.339 255.052)"/>
    <path id="path-22" data-name="path" class="cls-2" d="M325.361,511.261h0a2.362,2.362,0,0,1-1.924-1.05L218.306,345.343a2.426,2.426,0,0,1,3.673-3.061L353.174,469.366a2.362,2.362,0,0,1,0,3.062l-26.239,37.7A2.361,2.361,0,0,1,325.361,511.261ZM232.825,359.6l92.624,145.1,23.265-33.237Z" transform="translate(576.303 -141.661)"/>
    <path id="path-23" data-name="path" class="cls-2" d="M328.76,583.5H252.58a2.362,2.362,0,0,1-2.362-2.1L230.627,395.017a2.362,2.362,0,0,1,4.2-1.661L362.259,559.01a2.361,2.361,0,0,1,0,3.148,120.113,120.113,0,0,1-32.274,21.254Zm-74.081-4.811h73.556a114.934,114.934,0,0,0,28.951-18.8L236.137,402.451Z" transform="translate(674.361 251.753)"/>
    <path id="path-24" data-name="path" class="cls-2" d="M360.116,602.051h0a2.446,2.446,0,0,1-1.662-.874L231.108,435.521a2.361,2.361,0,0,1,.7-3.411l75.131-44.519a2.449,2.449,0,0,1,2.012,0,2.361,2.361,0,0,1,1.4,1.487l59.913,202.477a2.363,2.363,0,0,1-.525,2.275c-2.449,2.711-5.074,5.335-7.785,7.871A2.363,2.363,0,0,1,360.116,602.051ZM236.18,434.734l124.2,161.544q2.449-2.361,4.723-4.81L306.413,392.839Z" transform="translate(674.667 212.299)"/>
    <path id="path-25" data-name="path" class="cls-2" d="M301.478,597.15h-.525a2.359,2.359,0,0,1-1.749-1.575L239.292,393.1a2.362,2.362,0,0,1,2.186-2.974l133.557-3.149a2.187,2.187,0,0,1,1.924.875,2.361,2.361,0,0,1,0,2.1L344.248,507.588a2.276,2.276,0,0,1-.962,1.312q-3.149,2.231-6.56,4.2l-2.623,1.488a120.441,120.441,0,0,1-31.4,81.952A2.351,2.351,0,0,1,301.478,597.15ZM244.715,394.585l57.813,195.481A115.628,115.628,0,0,0,329.9,513.1a2.362,2.362,0,0,1,1.224-2.1h.7l3.061-1.75c1.924-1.137,3.761-2.361,5.6-3.586l31.661-113.7Z" transform="translate(740.914 209.153)"/>
    <path id="path-26" data-name="path" class="cls-2" d="M253.091,508.988a2.272,2.272,0,0,1-1.4,0,2.361,2.361,0,0,1-.875-2.536l32.711-117.638a2.361,2.361,0,0,1,2.187-1.75,2.275,2.275,0,0,1,2.274,1.487l16.443,43.732a2.373,2.373,0,0,1,0,1.311,120.176,120.176,0,0,1-50.117,75.568,2.369,2.369,0,0,1-1.225-.174ZM286.152,396.6,257.289,500.241A115.453,115.453,0,0,0,299.972,432.2Z" transform="translate(830.146 209.852)"/>
    <path id="path-27" data-name="path" class="cls-2" d="M209.97,629.91h-.524a2.36,2.36,0,0,1-1.837-2.012L176.384,353.876a2.174,2.174,0,0,1,3.324-2.186l149.474,76.268a2.362,2.362,0,0,1,.962,3.324L211.894,628.948A2.274,2.274,0,0,1,209.97,629.91ZM181.894,357.637l29.913,262.389,113.7-189.619Z" transform="translate(254.116 -66.58)"/>
    <path id="path-28" data-name="path" class="cls-2" d="M182.295,562.482a2.362,2.362,0,0,1-2.011-3.586l118.25-197.666a2.361,2.361,0,0,1,2.711-1.05l161.107,53.353a2.361,2.361,0,0,1,0,4.286l-279.357,144.4A2.265,2.265,0,0,1,182.295,562.482Zm119.3-197.229L188.5,554.26,455.617,416.244Z" transform="translate(281.792 0.849)"/>
    <path id="path-29" data-name="path" class="cls-2" d="M443.284,604.643h-.612l-261.34-89.474a2.362,2.362,0,0,1,0-4.286l278.832-144.4a2.24,2.24,0,0,1,3.412,2.1l-18.193,233.7a2.361,2.361,0,0,1-1.049,1.749,2.269,2.269,0,0,1-1.05.613Zm-255.217-92.1,253.206,86.588L458.765,372.6Z" transform="translate(281.966 47.987)"/>
    <path id="path-30" data-name="path" class="cls-2" d="M356.857,487.712h-.7L195.05,434.359a2.362,2.362,0,0,1-1.487-2.886l22.653-78.717a2.361,2.361,0,0,1,3.849-1.05L358.431,482.9a2.362,2.362,0,0,1-1.574,4.024Zm-158.221-57.2L347.323,479.84,219.278,358.091Z" transform="translate(386.586 -68.783)"/>
    <path id="path-31" data-name="path" class="cls-2" d="M336.711,558.131a2.363,2.363,0,0,1-1.574-.612L196.77,426.324a2.323,2.323,0,0,1,0-3.323L281,342.71a2.049,2.049,0,0,1,3.586.962L338.722,555.6a2.361,2.361,0,0,1-2.274,2.886ZM201.668,424.138,332.425,548.423,281.259,348.307Z" transform="translate(406.732 -139.203)"/>
    <path id="path-32" data-name="path" class="cls-2" d="M238.032,600.109a2.449,2.449,0,0,1-1.4,0,2.36,2.36,0,0,1-.962-1.662l-23.79-229.765a2.362,2.362,0,0,1,4.461-1.137l89.912,213.584a2.365,2.365,0,0,1,0,1.924,2.275,2.275,0,0,1-1.575,1.225l-66.035,15.83ZM218.178,383.463l21.953,211.4,61.224-14.869Z" transform="translate(529.201 48.76)"/>
    <path id="path-33" data-name="path" class="cls-2" d="M214.216,560.557a2.362,2.362,0,0,1-2.274-2.887l53.44-214.2a2.362,2.362,0,0,1,1.924-1.75,2.275,2.275,0,0,1,2.362,1.05L374.624,507.555a2.611,2.611,0,0,1-1.487,3.5L214.829,560.382Zm53.965-210.611-50.728,204.4,151.4-47.229Z" transform="translate(529.227 -141.629)"/>
    <path id="path-34" data-name="path" class="cls-2" d="M158.111,426.8a2.361,2.361,0,0,1-1.924-3.76l37.347-50.9a2.273,2.273,0,0,1,1.225-.875,176.157,176.157,0,0,1,18.718-4.9c3.411-.7,6.822-1.225,10.145-1.662a173.79,173.79,0,0,1,80.728-39.97c4.2-.875,8.746-1.487,12.594-2.012a2.185,2.185,0,0,1,1.837.612,2.362,2.362,0,0,1,.787,1.749l-.875,34.985a2.361,2.361,0,0,1-1.487,2.1L158.9,426.274Zm38.746-51.253-32.011,43.732,149.212-60.437.787-30.962c-3.149.437-6.385.962-9.621,1.662A169.074,169.074,0,0,0,226.507,368.9a2.279,2.279,0,0,1-1.225.525c-3.5.524-7.085,1.049-10.583,1.749a174.869,174.869,0,0,0-18.017,4.373Z" transform="translate(94.227 -288.715)"/>
    <path id="path-35" data-name="path" class="cls-2" d="M228.071,446.183h0a179.133,179.133,0,0,1-90.787-29.3,2.363,2.363,0,0,1-.875-2.8l8.134-20.378a2.361,2.361,0,0,1,2.974-1.311l119.125,42.594a2.361,2.361,0,0,1,0,4.548l-37.7,6.735ZM141.307,414A174.135,174.135,0,0,0,227.9,441.459l28.775-5.16L147.955,397.466Z" transform="translate(-56.637 250.091)"/>
    <path id="path-36" data-name="path" class="cls-2" d="M258.647,590.221h-.787L138.735,547.715a2.362,2.362,0,0,1-1.574-2.275l4.286-170.465a2.361,2.361,0,0,1,4.373-1.049L260.659,586.985a2.362,2.362,0,0,1-2.1,3.412Zm-116.763-46.53,111.778,39.883-107.754-200.2Z" transform="translate(-49.603 99.318)"/>
    <path id="path-37" data-name="path" class="cls-2" d="M254.848,615.1a2.36,2.36,0,0,1-2.1-1.224L137.91,400.817a2.36,2.36,0,0,1,1.749-3.41l205.363-27.815a2.05,2.05,0,0,1,2.1,3.149L257.035,613.527a2.359,2.359,0,0,1-2.011,1.487ZM143.595,401.6,254.411,607.055l87.463-232.3Z" transform="translate(-45.804 74.438)"/>
    <path id="path-38" data-name="path" class="cls-2" d="M237.218,463.362a2.277,2.277,0,0,1-1.137,0l-53-29.213a2.274,2.274,0,0,1-1.137-1.487,2.363,2.363,0,0,1,0-1.924l72.682-100.67a2.362,2.362,0,0,1,2.712-.875h.7a106.624,106.624,0,0,1,23-9.8,2.327,2.327,0,0,1,2.887,2.974L238.88,461.7a2.359,2.359,0,0,1-1.4,1.487ZM187.627,431l48.279,26.239,42.77-131.807a101.841,101.841,0,0,0-18.63,8.746,2.36,2.36,0,0,1-2.012,0h0Z" transform="translate(295.701 -315.044)"/>
    <path id="path-39" data-name="path" class="cls-2" d="M220.264,430.77a2.454,2.454,0,0,1-1.224,0,2.362,2.362,0,0,1-1.05-2.449l20.729-95.685a2.361,2.361,0,0,1,2.536-1.836l93.323,9.358a2.362,2.362,0,0,1,1.224,4.2L222.1,430.595A2.446,2.446,0,0,1,220.264,430.77Zm22.566-95.422-18.892,87.463,104.169-78.717Z" transform="translate(576.182 -226.039)"/>
    <path id="path-40" data-name="path" class="cls-2" d="M233.941,392.008a2.361,2.361,0,0,1-2.274-1.924L218.9,326.236a2.33,2.33,0,0,1,4.023-2.012h0A72.681,72.681,0,0,1,292.1,363.495a2.268,2.268,0,0,1,0,1.836,2.358,2.358,0,0,1-1.311,1.4l-56.5,24.665ZM224.233,329.3l11.37,57.026,51.516-22.478A67.961,67.961,0,0,0,224.233,329.3Z" transform="translate(583.234 -282.874)"/>
    <path id="path-41" data-name="path" class="cls-2" d="M190.111,467.137a2.362,2.362,0,0,1-2.187-3.061l45.218-139.329a2.362,2.362,0,0,1,1.574-1.574c3.061-.875,6.122-1.662,8.746-2.274a106.354,106.354,0,0,1,64.373,7.172,2.276,2.276,0,0,1,.962.525l103.12,93.236a2.272,2.272,0,0,1,.7,2.361,2.361,2.361,0,0,1-1.836,1.662L190.373,466.962Zm46.88-139.94-43.731,134.43L405.1,422.095l-99.271-89.737a101.452,101.452,0,0,0-61.661-6.91c-2.274.613-4.548,1.225-7.172,1.925Z" transform="translate(342.809 -318.82)"/>
    <path id="path-42" data-name="path" class="cls-2" d="M346.762,435.073h-.787L189.329,376.21a2.379,2.379,0,0,1,.438-4.548l220.407-41.108a2.361,2.361,0,0,1,2.362,3.586l-64.111,99.883A2.365,2.365,0,0,1,346.762,435.073ZM199.125,374.723l146.675,55.1,60.175-93.673Z" transform="translate(342.891 -228.067)"/>
    <path id="path-43" data-name="path" class="cls-2" d="M208.085,435.068a2.362,2.362,0,0,1-2.012-3.587L270.184,331.6a2.184,2.184,0,0,1,2.186-1.049,2.359,2.359,0,0,1,1.924,1.4l43.119,97.609a2.144,2.144,0,0,1-1.924,3.236l-107.23,2.275Zm63.761-97.259-59.388,92.449,99.271-2.1Z" transform="translate(481.569 -228.062)"/>
    <path id="path-44" data-name="path" class="cls-2" d="M258.75,432.775a2.361,2.361,0,0,1-2.1-1.4l-43.47-97.522a2.361,2.361,0,0,1,2.187-3.323l63.848,2.011a2.364,2.364,0,0,1,1.75.875,2.274,2.274,0,0,1,.437,1.924l-20.379,95.51a2.363,2.363,0,0,1-2.012,1.837ZM219.3,335.341,258.05,422.8,276.68,337Z" transform="translate(537.696 -228.044)"/>
    <path id="path-45" data-name="path" class="cls-2" d="M279.142,414.711h0L215.294,412.7a2.362,2.362,0,0,1-2.274-2.361V322.875a2.361,2.361,0,0,1,3.236-2.186,68.146,68.146,0,0,1,6.56,2.974,73.028,73.028,0,0,1,45.656,23.615,2.359,2.359,0,0,1,.525,1.137l12.769,63.848a2,2,0,0,1-2.623,2.449Zm-61.225-6.559,58.6,1.837-12.07-60.263a68.311,68.311,0,0,0-42.682-21.6h-.787l-3.324-1.574Z" transform="translate(538.033 -305.577)"/>
    <path id="path-46" data-name="path" class="cls-2" d="M298.484,532.952h-.525l-73.994-16.18a2.362,2.362,0,0,1-1.137-3.936L362.07,375.518a2.362,2.362,0,0,1,3.761,2.624L300.583,531.29A2.362,2.362,0,0,1,298.484,532.952Zm-69.008-20.116L297.347,527.7l59.825-140.465Z" transform="translate(608.865 115.917)"/>
    <path id="path-47" data-name="path" class="cls-2" d="M233,532.846a2.273,2.273,0,0,1-1.574-.612,2.362,2.362,0,0,1-.612-2.711l65.247-153.148a2.323,2.323,0,0,1,4.461.7L310.4,485.7a2.362,2.362,0,0,1-1.138,2.274L233.96,532.322a2.272,2.272,0,0,1-.962.524Zm63.76-146.063L237.983,524.8l67.7-40.145Z" transform="translate(674.352 116.023)"/>
    <path id="path-48" data-name="path" class="cls-2" d="M303.335,524.552a2.36,2.36,0,0,1-2.012-1.224L230.3,397.38a2.361,2.361,0,0,1,0-2.449l26.239-37.7a2.274,2.274,0,0,1,2.362-.962,2.359,2.359,0,0,1,1.836,1.662l44.519,163.645a2.361,2.361,0,0,1-1.4,2.8ZM235.2,396.419l61.224,108.193L258.2,363.97Z" transform="translate(669.262 -29.006)"/>
    <path id="path-49" data-name="path" class="cls-2" d="M279.862,524.577h-.7A2.359,2.359,0,0,1,277.588,523L233.069,359.186a2.362,2.362,0,0,1,2.886-2.887l180.087,52.478a2.361,2.361,0,0,1,.875,4.023L281.349,523.965a2.358,2.358,0,0,1-1.487.613Zm-41.2-162.593,42.507,156.122L410.533,412.014Z" transform="translate(692.734 -29.032)"/>
    <path id="path-50" data-name="path" class="cls-2" d="M250.336,488.3a2.361,2.361,0,0,1-2.362-2.1l-9.883-108.63a2.415,2.415,0,0,1,3.673-2.275L385.379,480.515a2.361,2.361,0,0,1-1.311,4.2l-133.557,3.149Zm-7.084-106.005,9.271,101.282,124.81-3.061Z" transform="translate(732.144 115.876)"/>
    <path id="path-51" data-name="path" class="cls-2" d="M383.969,573.02a2.359,2.359,0,0,1-1.4-.438L239.042,467.1a2.345,2.345,0,0,1,.087-3.849l149.737-99.271a2.362,2.362,0,0,1,3.673,2.012L388.6,495.441a2.274,2.274,0,0,1-.962,1.837,64.2,64.2,0,0,1-16.793,8.746A121.526,121.526,0,0,1,387.2,527.1a2.287,2.287,0,0,1,0,1.312l-1.312,42.07a2.358,2.358,0,0,1-1.312,2.012ZM244.552,465.266,381.782,566.11l1.137-36.909a116.158,116.158,0,0,0-17.93-22.3,2.272,2.272,0,0,1-.612-2.274,2.362,2.362,0,0,1,1.574-1.662,58.86,58.86,0,0,0,18.018-8.746l3.76-123.762Z" transform="translate(732.155 28.007)"/>
    <circle id="ellipse" class="cls-2" cx="16.356" cy="16.356" r="16.356" transform="translate(414.232 268.055)"/>
    <circle id="ellipse-2" data-name="ellipse" class="cls-2" cx="16.443" cy="16.443" r="16.443" transform="translate(516.477 129.513)"/>
    <circle id="ellipse-3" data-name="ellipse" class="cls-2" cx="10.583" cy="10.583" r="10.583" transform="translate(471.171 108.434)"/>
    <path id="path-52" data-name="path" class="cls-2" d="M195.719,361.117A15.219,15.219,0,1,1,210.937,345.9a15.219,15.219,0,0,1-15.218,15.219Z" transform="translate(286.123 -226.881)"/>
    <circle id="ellipse-4" data-name="ellipse" class="cls-2" cx="12.857" cy="12.857" r="12.857" transform="translate(803.88 93.303)"/>
    <circle id="ellipse-5" data-name="ellipse" class="cls-2" cx="16.443" cy="16.443" r="16.443" transform="translate(736.884 88.405)"/>
    <circle id="ellipse-6" data-name="ellipse" class="cls-2" cx="16.356" cy="16.356" r="16.356" transform="translate(672.861 188.376)"/>
    <circle id="ellipse-7" data-name="ellipse" class="cls-2" cx="16.356" cy="16.356" r="16.356" transform="translate(726.563 395.751)"/>
    <circle id="ellipse-8" data-name="ellipse" class="cls-2" cx="16.356" cy="16.356" r="16.356" transform="translate(953.792 475.342)"/>
    <circle id="ellipse-9" data-name="ellipse" class="cls-2" cx="16.443" cy="16.443" r="16.443" transform="translate(911.897 315.984)"/>
    <circle id="ellipse-10" data-name="ellipse" class="cls-2" cx="16.356" cy="16.356" r="16.356" transform="translate(565.893 346.946)"/>
    <circle id="ellipse-11" data-name="ellipse" class="cls-2" cx="16.356" cy="16.356" r="16.356" transform="translate(781.49 186.452)"/>
    <circle id="ellipse-12" data-name="ellipse" class="cls-2" cx="14.082" cy="14.082" r="14.082" transform="translate(897.903 104.936)"/>
    <circle id="ellipse-13" data-name="ellipse" class="cls-2" cx="16.356" cy="16.356" r="16.356" transform="translate(394.903 52.895)"/>
    <circle id="ellipse-14" data-name="ellipse" class="cls-2" cx="16.443" cy="16.443" r="16.443" transform="translate(454.553 207.443)"/>
    <circle id="ellipse-15" data-name="ellipse" class="cls-2" cx="16.356" cy="16.356" r="16.356" transform="translate(816.912 613.796)"/>
    <circle id="ellipse-16" data-name="ellipse" class="cls-2" cx="16.356" cy="16.356" r="16.356" transform="translate(706.884 632.601)"/>
    <circle id="ellipse-17" data-name="ellipse" class="cls-2" cx="16.356" cy="16.356" r="16.356" transform="translate(500.383 675.633)"/>
    <circle id="ellipse-18" data-name="ellipse" class="cls-2" cx="16.356" cy="16.356" r="16.356" transform="translate(191.638 666.012)"/>
    <circle id="ellipse-19" data-name="ellipse" class="cls-2" cx="16.443" cy="16.443" r="16.443" transform="translate(966.474 585.371)"/>
    <circle id="ellipse-20" data-name="ellipse" class="cls-2" cx="16.443" cy="16.443" r="16.443" transform="translate(1100.38 583.534)"/>
    <circle id="ellipse-21" data-name="ellipse" class="cls-2" cx="16.356" cy="16.356" r="16.356" transform="translate(392.629 605.4)"/>
    <circle id="ellipse-22" data-name="ellipse" class="cls-2" cx="16.443" cy="16.443" r="16.443" transform="translate(448.518 540.852)"/>
    <circle id="ellipse-23" data-name="ellipse" class="cls-2" cx="16.356" cy="16.356" r="16.356" transform="translate(281.463 428.55)"/>
    <circle id="ellipse-24" data-name="ellipse" class="cls-2" cx="16.356" cy="16.356" r="16.356" transform="translate(76.887 458.2)"/>
    <circle id="ellipse-25" data-name="ellipse" class="cls-2" cx="16.356" cy="16.356" r="16.356" transform="translate(234.583 119.28)"/>
  </g>
</svg>
