<svg xmlns="http://www.w3.org/2000/svg" viewBox="1376.75 -1995.25 21.42 23.766">
  <defs>
    <style>
      .cls-1 {
        fill: none;
        stroke: #ffd87d;
        stroke-width: 0.5px;
      }
    </style>
  </defs>
  <g id="group-29" transform="translate(1376.5 -1995.5)">
    <path id="path" class="cls-1" d="M24.451,23a3.78,3.78,0,0,0-3.811,3.95,3.812,3.812,0,1,0,7.619-.005A3.775,3.775,0,0,0,24.451,23Z" transform="translate(-17.276 -17.847)"/>
    <path id="path-2" data-name="path" class="cls-1" d="M9.56,63.515a4.887,4.887,0,0,0,1.034,2.875c.613.667,11.083.626,11.3,0a5.019,5.019,0,0,0,1.011-2.875,6.574,6.574,0,0,0-6.642-6.445H16.2A6.564,6.564,0,0,0,9.56,63.515Z" transform="translate(-9.06 -43.108)"/>
    <path id="path-3" data-name="path" class="cls-1" d="M53.7,5A3.781,3.781,0,0,0,49.89,8.95a3.812,3.812,0,1,0,7.619,0A3.781,3.781,0,0,0,53.7,5Z" transform="translate(-38.964 -4.5)"/>
    <path id="path-4" data-name="path" class="cls-1" d="M50.333,39.08h-.062a6.9,6.9,0,0,0-2.748.592,4.832,4.832,0,0,1-2.213,3.464,7.6,7.6,0,0,1,5.018,5.747c2.764,0,5.514-.171,5.626-.489a5.033,5.033,0,0,0,1.034-2.875A6.584,6.584,0,0,0,50.333,39.08Z" transform="translate(-35.568 -29.769)"/>
  </g>
</svg>
